// GMSH Geometry File
SetFactory("OpenCASCADE");

Point(1) = {0.3296988606452942, 5.532810688018799, 3.6042165756225586, 9.0};
Point(2) = {0.6266739964485168, 4.848567008972168, 4.667224407196045, 9.0};
Point(3) = {0.73903489112854, 6.4768757820129395, 2.465672731399536, 9.0};
Point(4) = {0.8330444693565369, 5.608189105987549, 1.794805884361267, 9.0};
Point(5) = {0.8459965586662292, 3.654298782348633, 3.3590543270111084, 9.0};
Point(6) = {1.3070414066314697, 7.813997268676758, 1.4363850355148315, 9.0};
Point(7) = {1.5645432472229004, 7.450288772583008, 2.468654155731201, 9.0};
Point(8) = {1.7282544374465942, 2.6671853065490723, 4.772466659545898, 9.0};
Point(9) = {1.7427847385406494, 2.907804250717163, 2.5534121990203857, 9.0};
Point(10) = {2.0126588344573975, 5.892104148864746, 0.6718666553497314, 9.0};
Point(11) = {2.1651458740234375, 3.8498706817626953, 4.826357364654541, 9.0};
Point(12) = {2.180206775665283, 6.1562180519104, 3.0780062675476074, 9.0};
Point(13) = {2.663830280303955, 1.7883814573287964, 5.441451549530029, 9.0};
Point(14) = {3.1196770668029785, 1.131016492843628, 6.962597846984863, 9.0};
Point(15) = {3.313110113143921, 8.50835132598877, 1.509635329246521, 9.0};
Point(16) = {3.348358392715454, 0.9915573000907898, 4.761690616607666, 9.0};
Point(17) = {3.366488218307495, 4.15487003326416, 4.692543029785156, 9.0};
Point(18) = {3.392960786819458, 2.850266218185425, 2.478994846343994, 9.0};
Point(19) = {3.3942368030548096, 4.573935031890869, 1.8803917169570923, 9.0};
Point(20) = {3.4030954837799072, 6.544513702392578, 0.2780250906944275, 9.0};
Point(21) = {3.41786789894104, 2.349126100540161, 5.250027179718018, 9.0};

Line(1) = {10, 9};
Line(2) = {9, 4};
Line(3) = {4, 10};
Line(4) = {2, 5};
Line(5) = {5, 8};
Line(6) = {8, 2};
Line(7) = {9, 5};
Line(8) = {5, 4};
Line(9) = {4, 9};
Line(10) = {8, 5};
Line(11) = {5, 9};
Line(12) = {9, 8};
Line(13) = {11, 2};
Line(14) = {2, 8};
Line(15) = {8, 11};
Line(16) = {8, 9};
Line(17) = {9, 16};
Line(18) = {16, 8};
Line(19) = {11, 8};
Line(20) = {8, 13};
Line(21) = {13, 11};
Line(22) = {3, 6};
Line(23) = {6, 4};
Line(24) = {4, 3};
Line(25) = {10, 4};
Line(26) = {4, 6};
Line(27) = {6, 10};
Line(28) = {6, 20};
Line(29) = {20, 10};
Line(30) = {10, 6};
Line(31) = {2, 4};
Line(32) = {4, 5};
Line(33) = {5, 2};
Line(34) = {1, 4};
Line(35) = {4, 2};
Line(36) = {2, 1};
Line(37) = {4, 1};
Line(38) = {1, 3};
Line(39) = {3, 4};
Line(40) = {1, 2};
Line(41) = {2, 12};
Line(42) = {12, 1};
Line(43) = {12, 3};
Line(44) = {3, 1};
Line(45) = {1, 12};
Line(46) = {7, 3};
Line(47) = {3, 12};
Line(48) = {12, 7};
Line(49) = {11, 12};
Line(50) = {12, 2};
Line(51) = {2, 11};
Line(52) = {6, 3};
Line(53) = {3, 7};
Line(54) = {7, 6};
Line(55) = {16, 9};
Line(56) = {9, 18};
Line(57) = {18, 16};
Line(58) = {8, 16};
Line(59) = {16, 13};
Line(60) = {13, 8};
Line(61) = {21, 13};
Line(62) = {13, 14};
Line(63) = {14, 21};
Line(64) = {14, 13};
Line(65) = {13, 16};
Line(66) = {16, 14};
Line(67) = {14, 16};
Line(68) = {16, 21};
Line(69) = {21, 14};
Line(70) = {21, 16};
Line(71) = {16, 18};
Line(72) = {18, 21};
Line(73) = {10, 18};
Line(74) = {18, 9};
Line(75) = {9, 10};
Line(76) = {19, 18};
Line(77) = {18, 10};
Line(78) = {10, 19};
Line(79) = {21, 18};
Line(80) = {18, 19};
Line(81) = {19, 21};
Line(82) = {21, 19};
Line(83) = {19, 17};
Line(84) = {17, 21};
Line(85) = {11, 13};
Line(86) = {13, 21};
Line(87) = {21, 11};
Line(88) = {11, 21};
Line(89) = {21, 17};
Line(90) = {17, 11};
Line(91) = {20, 19};
Line(92) = {19, 10};
Line(93) = {10, 20};
Line(94) = {19, 20};
Line(95) = {20, 17};
Line(96) = {17, 19};
Line(97) = {15, 12};
Line(98) = {12, 17};
Line(99) = {17, 15};
Line(100) = {12, 11};
Line(101) = {11, 17};
Line(102) = {17, 12};
Line(103) = {15, 20};
Line(104) = {20, 6};
Line(105) = {6, 15};
Line(106) = {15, 6};
Line(107) = {6, 7};
Line(108) = {7, 15};
Line(109) = {20, 15};
Line(110) = {15, 17};
Line(111) = {17, 20};
Line(112) = {15, 7};
Line(113) = {7, 12};
Line(114) = {12, 15};

Curve Loop(1) = {1, 2, 3};
Plane Surface(1) = {1};
Curve Loop(2) = {4, 5, 6};
Plane Surface(2) = {2};
Curve Loop(3) = {7, 8, 9};
Plane Surface(3) = {3};
Curve Loop(4) = {10, 11, 12};
Plane Surface(4) = {4};
Curve Loop(5) = {13, 14, 15};
Plane Surface(5) = {5};
Curve Loop(6) = {16, 17, 18};
Plane Surface(6) = {6};
Curve Loop(7) = {19, 20, 21};
Plane Surface(7) = {7};
Curve Loop(8) = {22, 23, 24};
Plane Surface(8) = {8};
Curve Loop(9) = {25, 26, 27};
Plane Surface(9) = {9};
Curve Loop(10) = {28, 29, 30};
Plane Surface(10) = {10};
Curve Loop(11) = {31, 32, 33};
Plane Surface(11) = {11};
Curve Loop(12) = {34, 35, 36};
Plane Surface(12) = {12};
Curve Loop(13) = {37, 38, 39};
Plane Surface(13) = {13};
Curve Loop(14) = {40, 41, 42};
Plane Surface(14) = {14};
Curve Loop(15) = {43, 44, 45};
Plane Surface(15) = {15};
Curve Loop(16) = {46, 47, 48};
Plane Surface(16) = {16};
Curve Loop(17) = {49, 50, 51};
Plane Surface(17) = {17};
Curve Loop(18) = {52, 53, 54};
Plane Surface(18) = {18};
Curve Loop(19) = {55, 56, 57};
Plane Surface(19) = {19};
Curve Loop(20) = {58, 59, 60};
Plane Surface(20) = {20};
Curve Loop(21) = {61, 62, 63};
Plane Surface(21) = {21};
Curve Loop(22) = {64, 65, 66};
Plane Surface(22) = {22};
Curve Loop(23) = {67, 68, 69};
Plane Surface(23) = {23};
Curve Loop(24) = {70, 71, 72};
Plane Surface(24) = {24};
Curve Loop(25) = {73, 74, 75};
Plane Surface(25) = {25};
Curve Loop(26) = {76, 77, 78};
Plane Surface(26) = {26};
Curve Loop(27) = {79, 80, 81};
Plane Surface(27) = {27};
Curve Loop(28) = {82, 83, 84};
Plane Surface(28) = {28};
Curve Loop(29) = {85, 86, 87};
Plane Surface(29) = {29};
Curve Loop(30) = {88, 89, 90};
Plane Surface(30) = {30};
Curve Loop(31) = {91, 92, 93};
Plane Surface(31) = {31};
Curve Loop(32) = {94, 95, 96};
Plane Surface(32) = {32};
Curve Loop(33) = {97, 98, 99};
Plane Surface(33) = {33};
Curve Loop(34) = {100, 101, 102};
Plane Surface(34) = {34};
Curve Loop(35) = {103, 104, 105};
Plane Surface(35) = {35};
Curve Loop(36) = {106, 107, 108};
Plane Surface(36) = {36};
Curve Loop(37) = {109, 110, 111};
Plane Surface(37) = {37};
Curve Loop(38) = {112, 113, 114};
Plane Surface(38) = {38};

Surface Loop(2) = {1, 2, 3, 4, 5, 6, 7, 8, 9, 10, 11, 12, 13, 14, 15, 16, 17, 18, 19, 20, 21, 22, 23, 24, 25, 26, 27, 28, 29, 30, 31, 32, 33, 34, 35, 36, 37, 38};
Volume(2) = {2};
Physical Volume("vug", 2) = {2};

//+
// Puntos
Point(10001) = {0, 0, 0, 30.0};
Point(10002) = {50, 0, 0, 30.0};
Point(10003) = {50, 50, 0, 30.0};
Point(10004) = {0, 50, 0, 30.0};
Point(10005) = {0, 0, 50, 30.0};
Point(10006) = {50, 0, 50, 30.0};
Point(10007) = {50, 50, 50, 30.0};
Point(10008) = {0, 50, 50, 30.0};

// Líneas
Line(10001) = {10001, 10002};
Line(10002) = {10002, 10003};
Line(10003) = {10003, 10004};
Line(10004) = {10004, 10001};
Line(10005) = {10005, 10006};
Line(10006) = {10006, 10007};
Line(10007) = {10007, 10008};
Line(10008) = {10008, 10005};
Line(10009) = {10001, 10005};
Line(10010) = {10002, 10006};
Line(10011) = {10003, 10007};
Line(10012) = {10004, 10008};

// Superficies
Line Loop(10013) = {10001, 10002, 10003, 10004};
Plane Surface(10014) = {10013};
Line Loop(10015) = {10005, 10006, 10007, 10008};
Plane Surface(10016) = {10015};
Line Loop(10017) = {10001, -10010, -10005, 10009};
Plane Surface(10018) = {10017};
Line Loop(10019) = {10002, -10011, -10006, 10010};
Plane Surface(10020) = {10019};
Line Loop(10021) = {10003, -10012, -10007, 10011};
Plane Surface(10022) = {10021};
Line Loop(10023) = {10004, -10009, -10008, 10012};
Plane Surface(10024) = {10023};

// Volumen
Surface Loop(10025) = {10014, 10016, 10018, 10020, 10022, 10024,1, 2, 3, 4, 5, 6, 7, 8, 9, 10, 11, 12, 13, 14, 15, 16, 17, 18, 19, 20, 21, 22, 23, 24, 25, 26, 27, 28, 29, 30, 31, 32, 33, 34, 35, 36, 37, 38};
Physical Surface("inlet")={10024};
Physical Surface("outlet")={10020};
Physical Surface("noflux")={10022,10014,10016,10018};

Volume(1) = {10025};


Physical Volume("CuboExterno", 1) = {1};
//BooleanCut{ Volume{1}; Delete; }{ Volume{2}; Delete; }
//+
Surface Loop(10026) = {10016, 10018, 10014, 10020, 10022, 10024};
//+
Surface Loop(10027) = {10018, 10014, 10020, 10022, 10024, 10016};
